<svg width="45" height="45" viewBox="0 0 45 45" fill="none" xmlns="http://www.w3.org/2000/svg">
<rect width="45" height="45" rx="22.5" fill="#BF00FF"/>
<path d="M28.8855 22.4999C31.1964 19.2552 32.3749 15.9018 30.7361 14.263C29.0974 12.6243 25.7439 13.8027 22.4993 16.1137C19.2546 13.8027 15.9011 12.6243 14.2624 14.263C12.6236 15.9018 13.8021 19.2552 16.113 22.4999C13.8021 25.7446 12.6236 29.098 14.2624 30.7368C14.7902 31.2646 15.4952 31.4999 16.3164 31.4999C18.0489 31.4999 20.2989 30.4527 22.5039 28.8862C24.6996 30.4527 26.9496 31.4999 28.6868 31.4999C29.508 31.4999 30.2139 31.2637 30.7408 30.7368C32.3749 29.098 31.1964 25.7446 28.8855 22.4999ZM29.6758 15.3234C30.3921 16.0396 29.9083 18.3609 27.9396 21.2559C27.3167 20.4848 26.6536 19.7473 25.953 19.0462C25.2518 18.3465 24.5143 17.6843 23.7433 17.0624C26.6383 15.0937 28.9596 14.6062 29.6758 15.3234ZM27.0264 22.4999C26.363 23.3391 25.6505 24.1383 24.8927 24.8934C24.1377 25.6512 23.3385 26.3637 22.4993 27.0271C21.66 26.3637 20.8608 25.6512 20.1058 24.8934C19.348 24.1383 18.6355 23.3391 17.9721 22.4999C19.303 20.8227 20.822 19.3037 22.4993 17.9727C23.3385 18.6361 24.1377 19.3486 24.8927 20.1065C25.6505 20.8615 26.363 21.6607 27.0264 22.4999ZM15.3227 15.3234C15.5289 15.1162 15.8693 15.0093 16.3183 15.0093C17.4264 15.0093 19.1955 15.6562 21.2543 17.0624C20.484 17.6849 19.7468 18.347 19.0455 19.0462C18.3458 19.7473 17.6837 20.4849 17.0618 21.2559C15.093 18.3609 14.6064 16.0396 15.3227 15.3234ZM15.3227 29.6765C14.6064 28.9602 15.093 26.639 17.0618 23.744C17.6846 24.515 18.3477 25.2526 19.0483 25.9537C19.749 26.6528 20.4856 27.3149 21.2552 27.9374C18.3602 29.9062 16.0389 30.3937 15.3227 29.6765ZM29.6758 29.6765C28.9596 30.3937 26.6383 29.909 23.7433 27.9402C24.5139 27.3169 25.2515 26.6538 25.953 25.9537C26.6527 25.2525 27.3148 24.5149 27.9368 23.744C29.9055 26.639 30.3921 28.9602 29.6758 29.6765ZM23.6243 22.4999C23.6243 22.7224 23.5583 22.9399 23.4347 23.1249C23.311 23.3099 23.1353 23.4541 22.9298 23.5393C22.7242 23.6244 22.498 23.6467 22.2798 23.6033C22.0615 23.5599 21.8611 23.4528 21.7038 23.2954C21.5464 23.1381 21.4393 22.9376 21.3959 22.7194C21.3525 22.5012 21.3747 22.275 21.4599 22.0694C21.545 21.8638 21.6892 21.6881 21.8742 21.5645C22.0592 21.4409 22.2767 21.3749 22.4993 21.3749C22.7976 21.3749 23.0838 21.4934 23.2947 21.7044C23.5057 21.9154 23.6243 22.2016 23.6243 22.4999Z" fill="#FAFAFA"/>
</svg>
