<svg width="45" height="45" viewBox="0 0 45 45" fill="none" xmlns="http://www.w3.org/2000/svg">
<rect width="45" height="45" rx="22.5" fill="#FF0000"/>
<path d="M33.75 21.75H33V18.75C33 18.3522 32.842 17.9706 32.5607 17.6893C32.2794 17.408 31.8978 17.25 31.5 17.25H30V16.5C30 16.1022 29.842 15.7206 29.5607 15.4393C29.2794 15.158 28.8978 15 28.5 15H26.25C25.8522 15 25.4706 15.158 25.1893 15.4393C24.908 15.7206 24.75 16.1022 24.75 16.5V21.75H20.25V16.5C20.25 16.1022 20.092 15.7206 19.8107 15.4393C19.5294 15.158 19.1478 15 18.75 15H16.5C16.1022 15 15.7206 15.158 15.4393 15.4393C15.158 15.7206 15 16.1022 15 16.5V17.25H13.5C13.1022 17.25 12.7206 17.408 12.4393 17.6893C12.158 17.9706 12 18.3522 12 18.75V21.75H11.25C11.0511 21.75 10.8603 21.829 10.7197 21.9697C10.579 22.1103 10.5 22.3011 10.5 22.5C10.5 22.6989 10.579 22.8897 10.7197 23.0303C10.8603 23.171 11.0511 23.25 11.25 23.25H12V26.25C12 26.6478 12.158 27.0294 12.4393 27.3107C12.7206 27.592 13.1022 27.75 13.5 27.75H15V28.5C15 28.8978 15.158 29.2794 15.4393 29.5607C15.7206 29.842 16.1022 30 16.5 30H18.75C19.1478 30 19.5294 29.842 19.8107 29.5607C20.092 29.2794 20.25 28.8978 20.25 28.5V23.25H24.75V28.5C24.75 28.8978 24.908 29.2794 25.1893 29.5607C25.4706 29.842 25.8522 30 26.25 30H28.5C28.8978 30 29.2794 29.842 29.5607 29.5607C29.842 29.2794 30 28.8978 30 28.5V27.75H31.5C31.8978 27.75 32.2794 27.592 32.5607 27.3107C32.842 27.0294 33 26.6478 33 26.25V23.25H33.75C33.9489 23.25 34.1397 23.171 34.2803 23.0303C34.421 22.8897 34.5 22.6989 34.5 22.5C34.5 22.3011 34.421 22.1103 34.2803 21.9697C34.1397 21.829 33.9489 21.75 33.75 21.75ZM13.5 26.25V18.75H15V26.25H13.5ZM18.75 28.5H16.5V16.5H18.75V28.5ZM28.5 28.5H26.25V16.5H28.5V26.9831C28.5 26.9888 28.5 26.9944 28.5 27C28.5 27.0056 28.5 27.0112 28.5 27.0169V28.5ZM31.5 26.25H30V18.75H31.5V26.25Z" fill="#FAFAFA"/>
</svg>
