<svg width="45" height="45" viewBox="0 0 45 45" fill="none" xmlns="http://www.w3.org/2000/svg">
<rect width="45" height="45" rx="22.5" fill="#FFAE00"/>
<path d="M31.5 21H13.5C13.3011 21 13.1103 21.079 12.9697 21.2197C12.829 21.3603 12.75 21.5511 12.75 21.75C12.7533 23.5336 13.2441 25.2824 14.1695 26.8072C15.0948 28.332 16.4194 29.5748 18 30.4013V30.75C18 31.1478 18.158 31.5294 18.4393 31.8107C18.7206 32.092 19.1022 32.25 19.5 32.25H25.5C25.8978 32.25 26.2794 32.092 26.5607 31.8107C26.842 31.5294 27 31.1478 27 30.75V30.4013C28.5806 29.5748 29.9052 28.332 30.8305 26.8072C31.7558 25.2824 32.2467 23.5336 32.25 21.75C32.25 21.5511 32.171 21.3603 32.0303 21.2197C31.8897 21.079 31.6989 21 31.5 21ZM25.9369 29.25C25.8065 29.3099 25.696 29.406 25.6186 29.5268C25.5411 29.6476 25.5 29.7881 25.5 29.9316V30.75H19.5V29.9334C19.5004 29.7896 19.4594 29.6487 19.3819 29.5276C19.3045 29.4064 19.1938 29.3101 19.0631 29.25C17.7442 28.6431 16.6081 27.6999 15.7688 26.5151C14.9296 25.3303 14.4168 23.9456 14.2819 22.5H30.7153C30.5806 23.9453 30.0682 25.3298 29.2295 26.5146C28.3908 27.6993 27.2553 28.6427 25.9369 29.25ZM18.1659 15.6563C18.6675 15.0319 18.7912 14.61 18.7397 14.4244C18.7003 14.2847 18.5138 14.2125 18.5119 14.2125C18.3421 14.1567 18.1978 14.0421 18.1051 13.8894C18.0123 13.7367 17.9771 13.5559 18.0058 13.3795C18.0345 13.2031 18.1252 13.0428 18.2617 12.9274C18.3981 12.812 18.5713 12.7491 18.75 12.75C18.8256 12.7501 18.9008 12.7615 18.9731 12.7838C19.0669 12.8128 19.9022 13.0959 20.1722 13.98C20.4028 14.7366 20.1206 15.6159 19.3341 16.5947C18.8325 17.2191 18.7088 17.6409 18.7603 17.8266C18.7997 17.9663 18.9825 18.0366 18.9844 18.0375C19.1538 18.0932 19.2979 18.2075 19.3907 18.3598C19.4835 18.5121 19.519 18.6926 19.4907 18.8687C19.4625 19.0448 19.3724 19.2051 19.2367 19.3208C19.1009 19.4365 18.9284 19.5001 18.75 19.5C18.6744 19.4999 18.5992 19.4885 18.5269 19.4663C18.4331 19.4372 17.5978 19.1541 17.3278 18.27C17.0972 17.5134 17.3794 16.6341 18.1659 15.6563ZM21.9159 15.6563C22.4175 15.0319 22.5413 14.61 22.4897 14.4244C22.4503 14.2847 22.2638 14.2125 22.2619 14.2125C22.0921 14.1567 21.9478 14.0421 21.8551 13.8894C21.7623 13.7367 21.7271 13.5559 21.7558 13.3795C21.7845 13.2031 21.8752 13.0428 22.0117 12.9274C22.1481 12.812 22.3213 12.7491 22.5 12.75C22.5756 12.7501 22.6508 12.7615 22.7231 12.7838C22.8169 12.8128 23.6522 13.0959 23.9222 13.98C24.1528 14.7366 23.8706 15.6159 23.0841 16.5947C22.5825 17.2191 22.4587 17.6409 22.5103 17.8266C22.5497 17.9663 22.7325 18.0366 22.7344 18.0375C22.9038 18.0932 23.0479 18.2075 23.1407 18.3598C23.2335 18.5121 23.269 18.6926 23.2407 18.8687C23.2125 19.0448 23.1224 19.2051 22.9867 19.3208C22.8509 19.4365 22.6784 19.5001 22.5 19.5C22.4244 19.4999 22.3492 19.4885 22.2769 19.4663C22.1831 19.4372 21.3478 19.1541 21.0778 18.27C20.8472 17.5134 21.1294 16.6341 21.9159 15.6563ZM25.6659 15.6563C26.1675 15.0319 26.2913 14.61 26.2397 14.4244C26.2003 14.2847 26.0138 14.2125 26.0119 14.2125C25.8421 14.1567 25.6978 14.0421 25.605 13.8894C25.5123 13.7367 25.4771 13.5559 25.5058 13.3795C25.5345 13.2031 25.6252 13.0428 25.7617 12.9274C25.8981 12.812 26.0713 12.7491 26.25 12.75C26.3256 12.7501 26.4008 12.7615 26.4731 12.7838C26.5669 12.8128 27.4022 13.0959 27.6722 13.98C27.9028 14.7366 27.6206 15.6159 26.8341 16.5947C26.3325 17.2191 26.2087 17.6409 26.2603 17.8266C26.2997 17.9663 26.4825 18.0366 26.4844 18.0375C26.6538 18.0932 26.7979 18.2075 26.8907 18.3598C26.9835 18.5121 27.019 18.6926 26.9907 18.8687C26.9625 19.0448 26.8724 19.2051 26.7367 19.3208C26.6009 19.4365 26.4284 19.5001 26.25 19.5C26.1744 19.4999 26.0992 19.4885 26.0269 19.4663C25.9331 19.4372 25.0978 19.1541 24.8278 18.27C24.5972 17.5134 24.8794 16.6341 25.6659 15.6563Z" fill="#FAFAFA"/>
</svg>
