<svg width="45" height="45" viewBox="0 0 45 45" fill="none" xmlns="http://www.w3.org/2000/svg">
<rect width="45" height="45" rx="22.5" fill="#727272"/>
<path d="M33 30.7505H31.5V20.2505C31.5 19.8527 31.342 19.4711 31.0607 19.1898C30.7794 18.9085 30.3978 18.7505 30 18.7505H24V14.2505C24.0002 13.9789 23.9266 13.7123 23.7871 13.4792C23.6476 13.2461 23.4474 13.0553 23.208 12.9271C22.9685 12.7989 22.6987 12.7381 22.4274 12.7513C22.1561 12.7644 21.8935 12.851 21.6675 13.0017L14.1675 18.0005C13.9618 18.1378 13.7931 18.3238 13.6767 18.542C13.5602 18.7602 13.4995 19.0038 13.5 19.2511V30.7505H12C11.8011 30.7505 11.6103 30.8295 11.4697 30.9702C11.329 31.1108 11.25 31.3016 11.25 31.5005C11.25 31.6994 11.329 31.8902 11.4697 32.0308C11.6103 32.1715 11.8011 32.2505 12 32.2505H33C33.1989 32.2505 33.3897 32.1715 33.5303 32.0308C33.671 31.8902 33.75 31.6994 33.75 31.5005C33.75 31.3016 33.671 31.1108 33.5303 30.9702C33.3897 30.8295 33.1989 30.7505 33 30.7505ZM30 20.2505V30.7505H24V20.2505H30ZM15 19.2511L22.5 14.2505V30.7505H15V19.2511ZM21 21.7505V23.2505C21 23.4494 20.921 23.6402 20.7803 23.7808C20.6397 23.9215 20.4489 24.0005 20.25 24.0005C20.0511 24.0005 19.8603 23.9215 19.7197 23.7808C19.579 23.6402 19.5 23.4494 19.5 23.2505V21.7505C19.5 21.5516 19.579 21.3608 19.7197 21.2202C19.8603 21.0795 20.0511 21.0005 20.25 21.0005C20.4489 21.0005 20.6397 21.0795 20.7803 21.2202C20.921 21.3608 21 21.5516 21 21.7505ZM18 21.7505V23.2505C18 23.4494 17.921 23.6402 17.7803 23.7808C17.6397 23.9215 17.4489 24.0005 17.25 24.0005C17.0511 24.0005 16.8603 23.9215 16.7197 23.7808C16.579 23.6402 16.5 23.4494 16.5 23.2505V21.7505C16.5 21.5516 16.579 21.3608 16.7197 21.2202C16.8603 21.0795 17.0511 21.0005 17.25 21.0005C17.4489 21.0005 17.6397 21.0795 17.7803 21.2202C17.921 21.3608 18 21.5516 18 21.7505ZM18 27.0005V28.5005C18 28.6994 17.921 28.8902 17.7803 29.0308C17.6397 29.1715 17.4489 29.2505 17.25 29.2505C17.0511 29.2505 16.8603 29.1715 16.7197 29.0308C16.579 28.8902 16.5 28.6994 16.5 28.5005V27.0005C16.5 26.8016 16.579 26.6108 16.7197 26.4702C16.8603 26.3295 17.0511 26.2505 17.25 26.2505C17.4489 26.2505 17.6397 26.3295 17.7803 26.4702C17.921 26.6108 18 26.8016 18 27.0005ZM21 27.0005V28.5005C21 28.6994 20.921 28.8902 20.7803 29.0308C20.6397 29.1715 20.4489 29.2505 20.25 29.2505C20.0511 29.2505 19.8603 29.1715 19.7197 29.0308C19.579 28.8902 19.5 28.6994 19.5 28.5005V27.0005C19.5 26.8016 19.579 26.6108 19.7197 26.4702C19.8603 26.3295 20.0511 26.2505 20.25 26.2505C20.4489 26.2505 20.6397 26.3295 20.7803 26.4702C20.921 26.6108 21 26.8016 21 27.0005Z" fill="#FAFAFA"/>
</svg>
