<svg width="169" height="34" viewBox="0 0 169 34" fill="none" xmlns="http://www.w3.org/2000/svg">
<path d="M3.44515e-05 33.12L0.576035 21.456L3.44515e-05 -7.62939e-06H18L17.472 5.13599H6.67203L6.38403 13.632H15.984L15.456 18.72H6.19203L6.14403 20.64L6.48003 28.032H18.096L17.568 33.12H3.44515e-05ZM30.729 27.12H31.353L32.937 20.544L35.529 8.68799L41.481 9.40799L37.881 21.312L34.857 32.544L26.649 33.264L23.817 21.6L20.361 9.93599L26.889 8.73599L28.953 19.296L30.729 27.12ZM53.2872 28.224C54.2152 28.224 55.1912 27.984 56.2152 27.504C57.2392 27.024 58.0392 26.544 58.6152 26.064L59.4792 25.344L61.6872 28.032C61.3672 28.576 60.8712 29.2 60.1992 29.904C59.5272 30.608 58.8392 31.216 58.1352 31.728C57.4632 32.208 56.5512 32.656 55.3992 33.072C54.2792 33.456 53.1112 33.648 51.8952 33.648C49.3032 33.648 47.1912 32.672 45.5592 30.72C43.9272 28.736 43.1112 26.192 43.1112 23.088C43.1112 19.184 44.2472 15.76 46.5192 12.816C48.7912 9.87199 51.4472 8.39999 54.4872 8.39999C56.8232 8.39999 58.6312 9.05599 59.9112 10.368C61.2232 11.68 61.8792 13.52 61.8792 15.888C61.8792 17.296 61.6392 18.896 61.1592 20.688L60.1992 21.696L48.1992 22.8C48.7432 26.416 50.4392 28.224 53.2872 28.224ZM53.2872 13.344C51.8792 13.344 50.6952 13.92 49.7352 15.072C48.7752 16.192 48.2152 17.632 48.0552 19.392L56.2152 18.384C56.3112 17.648 56.3592 17.04 56.3592 16.56C56.3592 14.416 55.3352 13.344 53.2872 13.344ZM79.989 20.976C79.989 18.768 79.797 17.296 79.413 16.56C79.029 15.824 78.133 15.456 76.725 15.456C75.317 15.456 73.717 16.016 71.925 17.136V20.64L72.453 31.92L66.021 33.12L66.597 21.456C66.469 17.168 66.117 13.328 65.541 9.93599L71.349 8.68799C71.573 10.544 71.733 12.352 71.829 14.112C72.309 13.472 72.853 12.848 73.461 12.24C74.069 11.6 75.029 10.896 76.341 10.128C77.653 9.32799 79.029 8.92799 80.469 8.92799C81.941 8.92799 83.173 9.50399 84.165 10.656C85.157 11.776 85.653 13.312 85.653 15.264L85.365 20.64L85.893 32.16L79.413 33.36L79.989 20.976ZM93.066 9.88799V4.65599L99.546 3.40799L98.922 9.88799H104.73L104.202 13.824H98.73L98.49 23.856C98.49 25.36 98.634 26.368 98.922 26.88C99.21 27.36 99.738 27.6 100.506 27.6C101.274 27.6 102.298 27.424 103.578 27.072L103.866 30.48C101.754 32.24 99.898 33.12 98.298 33.12C96.698 33.12 95.386 32.544 94.362 31.392C93.338 30.208 92.826 28.672 92.826 26.784L93.114 21.408L93.066 13.824H89.754L90.282 9.88799H93.066ZM119.729 -7.62939e-06C122.801 -7.62939e-06 125.249 0.879992 127.073 2.63999C128.897 4.36799 129.809 6.75199 129.809 9.79199C129.809 12.832 128.657 15.44 126.353 17.616C124.049 19.76 121.233 20.832 117.905 20.832H115.169L115.745 33.12H109.313L109.889 21.456L109.313 -7.62939e-06H119.729ZM118.001 4.84799H115.649L115.313 16.176H118.577C120.177 16.176 121.409 15.648 122.273 14.592C123.169 13.536 123.617 12.032 123.617 10.08C123.617 6.59199 121.745 4.84799 118.001 4.84799ZM132.15 9.93599L137.958 8.68799C138.246 11.152 138.438 13.488 138.534 15.696C141.446 11.184 144.182 8.92799 146.742 8.92799L146.214 16.416C144.358 16.416 142.886 16.592 141.798 16.944C140.742 17.264 139.654 17.92 138.534 18.912V20.64L139.062 31.92L132.63 33.12L133.206 21.456C133.078 17.168 132.726 13.328 132.15 9.93599ZM148.348 23.088C148.348 18.992 149.452 15.52 151.66 12.672C153.868 9.82399 156.444 8.39999 159.388 8.39999C162.364 8.39999 164.668 9.35999 166.3 11.28C167.964 13.2 168.796 15.744 168.796 18.912C168.796 23.136 167.724 26.656 165.58 29.472C163.468 32.256 160.796 33.648 157.564 33.648C154.908 33.648 152.7 32.656 150.94 30.672C149.212 28.656 148.348 26.128 148.348 23.088ZM163.42 21.408C163.42 16.768 161.836 14.448 158.668 14.448C155.372 14.448 153.724 16.624 153.724 20.976C153.724 23.248 154.188 25.024 155.116 26.304C156.044 27.584 157.26 28.224 158.764 28.224C160.3 28.224 161.452 27.648 162.22 26.496C163.02 25.312 163.42 23.616 163.42 21.408Z" fill="#3B82F6"/>
</svg>
