<svg width="45" height="45" viewBox="0 0 45 45" fill="none" xmlns="http://www.w3.org/2000/svg">
<rect width="45" height="45" rx="22.5" fill="#00FF37"/>
<path d="M23.3278 31.5312C23.2176 31.6967 23.0462 31.8118 22.8513 31.851C22.6563 31.8902 22.4537 31.8503 22.2881 31.7402C19.4627 29.8606 16.1436 28.8604 12.75 28.8658C12.5511 28.8658 12.3603 28.7868 12.2197 28.6462C12.079 28.5055 12 28.3148 12 28.1158C12 27.9169 12.079 27.7262 12.2197 27.5855C12.3603 27.4449 12.5511 27.3658 12.75 27.3658C16.4392 27.3602 20.0473 28.4479 23.1188 30.4915C23.2843 30.6016 23.3994 30.7731 23.4386 30.968C23.4778 31.163 23.4379 31.3656 23.3278 31.5312ZM12.75 24.3658C12.5511 24.3658 12.3603 24.4449 12.2197 24.5855C12.079 24.7262 12 24.9169 12 25.1158C12 25.3148 12.079 25.5055 12.2197 25.6462C12.3603 25.7868 12.5511 25.8658 12.75 25.8658C18.0514 25.8537 23.1438 27.9325 26.9222 31.6512C26.9919 31.7228 27.0752 31.7799 27.1673 31.8189C27.2594 31.8579 27.3583 31.8781 27.4583 31.8783C27.5583 31.8785 27.6573 31.8587 27.7495 31.8201C27.8417 31.7815 27.9253 31.7248 27.9953 31.6534C28.0653 31.582 28.1204 31.4974 28.1572 31.4044C28.194 31.3115 28.2119 31.2121 28.2097 31.1121C28.2075 31.0121 28.1854 30.9136 28.1446 30.8223C28.1038 30.731 28.0452 30.6488 27.9722 30.5805C23.9141 26.5858 18.4444 24.3527 12.75 24.3658ZM32.25 25.8658C30.717 25.8648 29.1888 26.0375 27.6947 26.3805C28.2097 26.7712 28.7097 27.1824 29.1947 27.6143C30.2047 27.4489 31.2265 27.3658 32.25 27.3658C32.4489 27.3658 32.6397 27.4449 32.7803 27.5855C32.921 27.7262 33 27.9169 33 28.1158C33 28.3148 32.921 28.5055 32.7803 28.6462C32.6397 28.7868 32.4489 28.8658 32.25 28.8658C31.6875 28.8658 31.1316 28.893 30.5766 28.9465C31.0966 29.4883 31.5947 30.0552 32.0709 30.6471C32.1362 30.7235 32.1854 30.8122 32.2157 30.908C32.246 31.0038 32.2567 31.1047 32.2473 31.2047C32.2378 31.3047 32.2083 31.4018 32.1606 31.4902C32.1129 31.5787 32.048 31.6566 31.9696 31.7194C31.8912 31.7822 31.8009 31.8287 31.7043 31.8559C31.6076 31.8832 31.5064 31.8908 31.4067 31.8782C31.307 31.8656 31.2109 31.8332 31.124 31.7827C31.0371 31.7323 30.9613 31.6649 30.9009 31.5846C28.7271 28.8586 25.9657 26.6587 22.8228 25.149C19.6799 23.6393 16.2367 22.8588 12.75 22.8658C12.5511 22.8658 12.3603 22.7868 12.2197 22.6462C12.079 22.5055 12 22.3148 12 22.1158C12 21.9169 12.079 21.7262 12.2197 21.5855C12.3603 21.4449 12.5511 21.3658 12.75 21.3658C14.2593 21.3661 15.7655 21.5032 17.25 21.7755V18.3658C17.25 18.2494 17.2771 18.1346 17.3292 18.0304C17.3813 17.9263 17.4569 17.8357 17.55 17.7658L23.55 13.2658C23.6798 13.1685 23.8377 13.1158 24 13.1158C24.1623 13.1158 24.3202 13.1685 24.45 13.2658L30.45 17.7658C30.5431 17.8357 30.6187 17.9263 30.6708 18.0304C30.7229 18.1346 30.75 18.2494 30.75 18.3658V21.4118C31.2478 21.3827 31.7475 21.3658 32.25 21.3658C32.4489 21.3658 32.6397 21.4449 32.7803 21.5855C32.921 21.7262 33 21.9169 33 22.1158C33 22.3148 32.921 22.5055 32.7803 22.6462C32.6397 22.7868 32.4489 22.8658 32.25 22.8658C29.5567 22.8607 26.8833 23.3268 24.3506 24.243C24.9406 24.5555 25.5175 24.8924 26.0812 25.2537C28.0843 24.6634 30.1618 24.3644 32.25 24.3658C32.4489 24.3658 32.6397 24.4449 32.7803 24.5855C32.921 24.7262 33 24.9169 33 25.1158C33 25.3148 32.921 25.5055 32.7803 25.6462C32.6397 25.7868 32.4489 25.8658 32.25 25.8658ZM21.75 19.1158H26.25C26.4489 19.1158 26.6397 19.1949 26.7803 19.3355C26.921 19.4762 27 19.6669 27 19.8658V21.9227C27.7425 21.7627 28.4925 21.6377 29.25 21.5477V18.7408L24 14.8033L18.75 18.7408V22.098C19.5119 22.2855 20.2619 22.5099 21 22.7712V19.8658C21 19.6669 21.079 19.4762 21.2197 19.3355C21.3603 19.1949 21.5511 19.1158 21.75 19.1158ZM22.5066 23.3599C23.4805 22.9417 24.4804 22.5869 25.5 22.2977V20.6158H22.5V23.3571L22.5066 23.3599Z" fill="#FAFAFA"/>
</svg>
