<svg width="45" height="45" viewBox="0 0 45 45" fill="none" xmlns="http://www.w3.org/2000/svg">
<rect width="45" height="45" rx="22.5" fill="#0900FF"/>
<path d="M25.875 12.3749C24.0854 12.3767 22.3695 13.0884 21.104 14.3539C19.8385 15.6194 19.1268 17.3353 19.125 19.1249C19.1257 19.4203 19.1455 19.7153 19.1841 20.0081L12.6675 28.8956C12.4542 29.184 12.3519 29.5397 12.3793 29.8974C12.4067 30.2551 12.5619 30.591 12.8166 30.8437L14.1563 32.1834C14.409 32.4381 14.7449 32.5933 15.1026 32.6207C15.4603 32.6481 15.8159 32.5457 16.1044 32.3324L24.9928 25.814C25.2853 25.8532 25.58 25.8736 25.875 25.8749C27.6652 25.8749 29.3821 25.1638 30.648 23.8979C31.9139 22.632 32.625 20.9151 32.625 19.1249C32.625 17.3347 31.9139 15.6178 30.648 14.352C29.3821 13.0861 27.6652 12.3749 25.875 12.3749ZM31.125 19.1249C31.1264 20.2582 30.7592 21.3612 30.0788 22.2674L22.7335 14.9212C23.5137 14.3384 24.4407 13.9842 25.4108 13.8981C26.3809 13.812 27.3557 13.9974 28.2265 14.4335C29.0972 14.8697 29.8294 15.5395 30.3413 16.368C30.8532 17.1965 31.1246 18.1511 31.125 19.1249ZM15.2175 31.1249L13.875 29.7824L19.7007 21.8437C20.3833 23.3848 21.6152 24.6167 23.1563 25.2993L15.2175 31.1249ZM20.625 19.1249C20.6235 17.9919 20.9908 16.8892 21.6713 15.9834L29.0157 23.3278C28.2355 23.9102 27.3086 24.2642 26.3388 24.3502C25.369 24.4362 24.3943 24.2508 23.5238 23.8148C22.6533 23.3788 21.9211 22.7092 21.4092 21.881C20.8973 21.0528 20.6258 20.0986 20.625 19.1249ZM20.4047 24.5943C20.5453 24.735 20.6242 24.9256 20.6242 25.1245C20.6242 25.3233 20.5453 25.514 20.4047 25.6546L19.6547 26.4046C19.5858 26.4772 19.503 26.5352 19.4113 26.5753C19.3195 26.6154 19.2207 26.6367 19.1206 26.638C19.0205 26.6393 18.9212 26.6205 18.8284 26.5828C18.7357 26.5451 18.6514 26.4892 18.5807 26.4184C18.5099 26.3476 18.454 26.2633 18.4163 26.1706C18.3785 26.0779 18.3598 25.9785 18.3611 25.8784C18.3623 25.7783 18.3836 25.6795 18.4237 25.5878C18.4638 25.496 18.5218 25.4133 18.5944 25.3443L19.3444 24.5943C19.414 24.5244 19.4967 24.4689 19.5878 24.431C19.679 24.3931 19.7766 24.3735 19.8753 24.3734C19.974 24.3733 20.0717 24.3927 20.1629 24.4305C20.254 24.4682 20.3369 24.5236 20.4066 24.5934L20.4047 24.5943Z" fill="#FAFAFA"/>
</svg>
